<?xml version="1.0" encoding="UTF-8" standalone="no"?>
<!DOCTYPE svg PUBLIC "-//W3C//DTD SVG 1.1//EN" "http://www.w3.org/Graphics/SVG/1.1/DTD/svg11.dtd">
<svg width="100%" height="100%" viewBox="0 0 800 600" version="1.1" xmlns="http://www.w3.org/2000/svg" xmlns:xlink="http://www.w3.org/1999/xlink" xml:space="preserve" xmlns:serif="http://www.serif.com/" style="fill-rule:evenodd;clip-rule:evenodd;stroke-linejoin:round;stroke-miterlimit:2;">
    <g transform="matrix(1,0,0,1,-1.09718,0)">
        <path d="M311.65,225.153C334.728,193.658 371.992,173.188 414,173.188C483.989,173.188 540.812,230.011 540.812,300C540.812,369.989 483.989,426.812 414,426.812C371.992,426.812 334.728,406.342 311.65,374.847C332.903,399.902 364.608,415.812 400,415.812C463.918,415.812 515.812,363.918 515.812,300C515.812,236.082 463.918,184.188 400,184.188C364.608,184.188 332.903,200.098 311.65,225.153Z" style="fill:rgb(42,121,127);"/>
    </g>
    <g transform="matrix(1,0,0,1,-1.09718,0)">
        <path d="M511.727,398.538C484.421,429.474 444.473,449 400,449C317.765,449 251,382.235 251,300C251,217.765 317.765,151 400,151C444.473,151 484.421,170.526 511.727,201.462C487.148,178.252 453.908,164 417.342,164C341.73,164 280.342,224.94 280.342,300C280.342,375.06 341.73,436 417.342,436C453.908,436 487.148,421.748 511.727,398.538Z" style="fill:url(#_Radial1);"/>
    </g>
    <g transform="matrix(1,0,0,1,0,10.0331)">
        <g transform="matrix(0.86519,0,0,0.86519,-192.342,46.8496)">
            <path d="M652.504,271.944L668.09,278.32C682.777,284.258 693.52,291.504 700.316,300.059C707.113,308.613 710.512,319.102 710.512,331.523C710.512,348.164 704.965,361.914 693.871,372.773C682.752,383.66 668.962,389.128 652.504,389.179L652.504,363.625C652.776,363.63 653.049,363.633 653.324,363.633C661.84,363.633 668.91,360.781 674.535,355.078C680.16,349.375 682.973,342.148 682.973,333.398C682.973,329.883 682.484,326.66 681.508,323.73C680.531,320.801 679.008,318.105 676.938,315.645C674.867,313.184 672.191,310.879 668.91,308.73C665.629,306.582 661.723,304.531 657.191,302.578L652.504,300.628L652.504,271.944ZM652.504,201.577C653.965,201.489 655.449,201.445 656.957,201.445C677.816,201.445 694.105,211.602 705.824,231.914L683.676,245.039C679.535,237.852 675.59,233.164 671.84,230.977C667.934,228.477 662.895,227.227 656.723,227.227C655.269,227.227 653.863,227.306 652.504,227.464L652.504,201.577Z" style="fill-rule:nonzero;"/>
        </g>
        <g transform="matrix(0.86519,0,0,0.86519,304.395,154.147)">
            <path d="M135.219,66.139L135.54,66.139C152.968,66.139 166.253,69.044 175.395,74.853C182.913,79.552 188.808,86.174 193.08,94.717C197.352,103.517 199.488,112.787 199.488,122.526C199.488,136.708 195.515,149.182 187.57,159.947C176.312,175.201 158.863,183.173 135.219,183.862L135.219,157.84C145.929,157.397 154.259,154.319 160.209,148.605C166.659,142.411 169.884,133.462 169.884,121.757C169.884,103.265 158.329,93.829 135.219,93.448L135.219,66.139Z" style="fill-rule:nonzero;"/>
        </g>
        <g transform="matrix(0.86519,0,0,0.86519,305.621,149.147)">
            <path d="M135.219,66.139L135.219,93.448C134.733,93.44 134.242,93.436 133.745,93.436L121.315,93.436L113.369,157.896L132.464,157.896C133.399,157.896 134.317,157.878 135.219,157.84L135.219,183.862C134.103,183.895 132.97,183.911 131.823,183.911L110.165,183.911L100.298,264.007L70.951,264.007L95.428,66.139L135.219,66.139Z" style="fill-rule:nonzero;"/>
        </g>
        <g transform="matrix(0.86519,0,0,0.86519,-191.342,41.8491)">
            <path d="M652.504,389.179L652.27,389.18C636.566,389.18 623.598,384.531 613.363,375.234C603.285,365.938 596.996,352.852 594.496,335.977L622.152,329.883C623.402,340.508 625.59,347.852 628.715,351.914C634.196,359.527 642.126,363.431 652.504,363.625L652.504,389.179ZM652.504,201.577L652.504,227.464C646.779,228.13 641.896,230.199 637.855,233.672C632.855,237.891 630.355,243.203 630.355,249.609C630.355,258.438 636.918,265.547 650.043,270.938L652.504,271.944L652.504,300.628L639.73,295.313C614.965,284.844 602.582,269.531 602.582,249.375C602.582,235.781 607.777,224.414 618.168,215.273C627.546,206.954 638.991,202.388 652.504,201.577Z" style="fill-rule:nonzero;"/>
        </g>
        <g transform="matrix(0.86519,0,0,0.86519,277.593,-25.9416)">
            <path d="M142.183,394L163.097,394C165.935,400.412 167.353,407.631 167.353,415.657C167.353,432.297 161.807,446.047 150.713,456.907C139.593,467.793 125.804,473.261 109.346,473.312L109.346,447.758C109.618,447.763 109.891,447.766 110.166,447.766C118.682,447.766 125.752,444.914 131.377,439.211C137.002,433.508 139.814,426.282 139.814,417.532C139.814,416.658 139.784,415.802 139.724,414.965L142.183,394Z" style="fill-rule:nonzero;"/>
        </g>
        <g transform="matrix(0.86519,0,0,0.86519,277.593,-25.9416)">
            <path d="M109.346,285.71L109.346,311.597C110.705,311.439 112.111,311.36 113.564,311.36C119.736,311.36 124.775,312.61 128.682,315.11C132.432,317.297 136.377,321.985 140.517,329.172L162.666,316.047C150.947,295.735 134.658,285.578 113.799,285.578C112.291,285.578 110.806,285.622 109.346,285.71Z" style="fill-rule:nonzero;"/>
        </g>
    </g>
    <g transform="matrix(1,0,0,1,0,5.03309)">
        <g transform="matrix(0.86519,0,0,0.86519,-192.342,46.8496)">
            <path d="M652.504,271.944L668.09,278.32C682.777,284.258 693.52,291.504 700.316,300.059C707.113,308.613 710.512,319.102 710.512,331.523C710.512,348.164 704.965,361.914 693.871,372.773C682.752,383.66 668.962,389.128 652.504,389.179L652.504,363.625C652.776,363.63 653.049,363.633 653.324,363.633C661.84,363.633 668.91,360.781 674.535,355.078C680.16,349.375 682.973,342.148 682.973,333.398C682.973,329.883 682.484,326.66 681.508,323.73C680.531,320.801 679.008,318.105 676.938,315.645C674.867,313.184 672.191,310.879 668.91,308.73C665.629,306.582 661.723,304.531 657.191,302.578L652.504,300.628L652.504,271.944ZM652.504,201.577C653.965,201.489 655.449,201.445 656.957,201.445C677.816,201.445 694.105,211.602 705.824,231.914L683.676,245.039C679.535,237.852 675.59,233.164 671.84,230.977C667.934,228.477 662.895,227.227 656.723,227.227C655.269,227.227 653.863,227.306 652.504,227.464L652.504,201.577Z" style="fill:rgb(253,185,48);fill-rule:nonzero;"/>
        </g>
        <g transform="matrix(0.86519,0,0,0.86519,304.395,154.147)">
            <path d="M135.219,66.139L135.54,66.139C152.968,66.139 166.253,69.044 175.395,74.853C182.913,79.552 188.808,86.174 193.08,94.717C197.352,103.517 199.488,112.787 199.488,122.526C199.488,136.708 195.515,149.182 187.57,159.947C176.312,175.201 158.863,183.173 135.219,183.862L135.219,157.84C145.929,157.397 154.259,154.319 160.209,148.605C166.659,142.411 169.884,133.462 169.884,121.757C169.884,103.265 158.329,93.829 135.219,93.448L135.219,66.139Z" style="fill:rgb(42,121,127);fill-rule:nonzero;"/>
        </g>
        <g transform="matrix(0.86519,0,0,0.86519,305.621,149.147)">
            <path d="M135.219,66.139L135.219,93.448C134.733,93.44 134.242,93.436 133.745,93.436L121.315,93.436L113.369,157.896L132.464,157.896C133.399,157.896 134.317,157.878 135.219,157.84L135.219,183.862C134.103,183.895 132.97,183.911 131.823,183.911L110.165,183.911L100.298,264.007L70.951,264.007L95.428,66.139L135.219,66.139Z" style="fill:rgb(42,121,127);fill-rule:nonzero;"/>
        </g>
        <g transform="matrix(0.86519,0,0,0.86519,-191.342,41.8491)">
            <path d="M652.504,389.179L652.27,389.18C636.566,389.18 623.598,384.531 613.363,375.234C603.285,365.938 596.996,352.852 594.496,335.977L622.152,329.883C623.402,340.508 625.59,347.852 628.715,351.914C634.196,359.527 642.126,363.431 652.504,363.625L652.504,389.179ZM652.504,201.577L652.504,227.464C646.779,228.13 641.896,230.199 637.855,233.672C632.855,237.891 630.355,243.203 630.355,249.609C630.355,258.438 636.918,265.547 650.043,270.938L652.504,271.944L652.504,300.628L639.73,295.313C614.965,284.844 602.582,269.531 602.582,249.375C602.582,235.781 607.777,224.414 618.168,215.273C627.546,206.954 638.991,202.388 652.504,201.577Z" style="fill:rgb(253,185,48);fill-rule:nonzero;"/>
        </g>
        <g transform="matrix(0.86519,0,0,0.86519,277.593,-25.9416)">
            <path d="M142.183,394L163.097,394C165.935,400.412 167.353,407.631 167.353,415.657C167.353,432.297 161.807,446.047 150.713,456.907C139.593,467.793 125.804,473.261 109.346,473.312L109.346,447.758C109.618,447.763 109.891,447.766 110.166,447.766C118.682,447.766 125.752,444.914 131.377,439.211C137.002,433.508 139.814,426.282 139.814,417.532C139.814,416.658 139.784,415.802 139.724,414.965L142.183,394Z" style="fill:rgb(253,185,48);fill-rule:nonzero;"/>
        </g>
        <g transform="matrix(0.86519,0,0,0.86519,277.593,-25.9416)">
            <path d="M109.346,285.71L109.346,311.597C110.705,311.439 112.111,311.36 113.564,311.36C119.736,311.36 124.775,312.61 128.682,315.11C132.432,317.297 136.377,321.985 140.517,329.172L162.666,316.047C150.947,295.735 134.658,285.578 113.799,285.578C112.291,285.578 110.806,285.622 109.346,285.71Z" style="fill:rgb(253,185,48);fill-rule:nonzero;"/>
        </g>
    </g>
    <defs>
        <radialGradient id="_Radial1" cx="0" cy="0" r="1" gradientUnits="userSpaceOnUse" gradientTransform="matrix(260.727,0,0,298,251,300)"><stop offset="0" style="stop-color:rgb(200,136,8);stop-opacity:1"/><stop offset="0.5" style="stop-color:rgb(255,209,116);stop-opacity:1"/><stop offset="1" style="stop-color:rgb(253,185,48);stop-opacity:1"/></radialGradient>
    </defs>
</svg>
